<?xml version="1.0" encoding="utf-8"?>
<!-- Generator: Adobe Illustrator 23.0.1, SVG Export Plug-In . SVG Version: 6.00 Build 0)  -->
<svg version="1.1" id="Layer_1" xmlns="http://www.w3.org/2000/svg" xmlns:xlink="http://www.w3.org/1999/xlink" x="0px" y="0px"
	 viewBox="0 0 279.7 81" style="enable-background:new 0 0 279.7 81;" xml:space="preserve">
<style type="text/css">
	.st0{fill:#FFFFFF;}
</style>
<path class="st0" d="M5.1,61.8V2.9h23.6c4.3,0,7.9,0.6,10.8,1.9s5.1,3.1,6.5,5.3c1.5,2.3,2.2,4.9,2.2,7.8c0,2.3-0.5,4.3-1.4,6.1
	c-0.9,1.7-2.2,3.2-3.8,4.3s-3.4,1.9-5.5,2.3v0.6c2.2,0.1,4.3,0.7,6.3,1.9c2,1.2,3.6,2.8,4.8,4.9c1.2,2.1,1.8,4.6,1.8,7.5
	c0,3.1-0.8,5.9-2.3,8.4s-3.8,4.4-6.8,5.8c-3,1.4-6.7,2.1-11.1,2.1H5.1z M17.6,27.6h9.2c1.7,0,3.2-0.3,4.6-0.9
	c1.3-0.6,2.4-1.5,3.2-2.6s1.2-2.4,1.2-4c0-2.1-0.8-3.8-2.3-5.1s-3.6-2-6.4-2h-9.5V27.6z M17.6,51.6h10.1c3.5,0,6-0.7,7.6-2
	s2.4-3.1,2.4-5.3c0-1.6-0.4-3.1-1.2-4.3s-1.9-2.2-3.3-2.9C31.7,36.4,30,36,28,36H17.6V51.6z M55.4,61.8V2.9h12.2V25H68
	c0.5-1.2,1.3-2.4,2.3-3.6s2.4-2.3,4-3.1S78,17,80.5,17c3.2,0,6.2,0.8,8.9,2.5s4.9,4.2,6.5,7.6s2.4,7.6,2.4,12.6
	c0,4.9-0.8,9.1-2.4,12.5c-1.6,3.4-3.7,5.9-6.4,7.7s-5.7,2.6-9.1,2.6c-2.4,0-4.4-0.4-6.1-1.2s-3-1.8-4.1-3s-1.9-2.4-2.4-3.6h-0.5v7.1
	H55.4z M67.4,39.7c0,2.6,0.4,4.9,1.1,6.9s1.8,3.5,3.2,4.6c1.4,1.1,3.1,1.6,5,1.6c2,0,3.7-0.5,5.1-1.7c1.4-1.1,2.4-2.6,3.1-4.6
	s1.1-4.2,1.1-6.8c0-2.5-0.4-4.8-1.1-6.7s-1.8-3.4-3.1-4.5c-1.4-1.1-3.1-1.6-5.1-1.6s-3.7,0.5-5,1.6c-1.4,1.1-2.4,2.5-3.1,4.5
	C67.7,34.8,67.4,37.1,67.4,39.7z M115.6,2.9v58.9h-12.2V2.9H115.6z M142.1,62.7c-4.5,0-8.3-1-11.6-2.9c-3.2-1.9-5.8-4.6-7.5-8
	c-1.8-3.4-2.6-7.4-2.6-11.9c0-4.6,0.9-8.6,2.6-12c1.8-3.4,4.3-6.1,7.5-8s7.1-2.9,11.6-2.9s8.3,1,11.6,2.9c3.2,1.9,5.8,4.6,7.5,8
	c1.8,3.4,2.6,7.4,2.6,12c0,4.5-0.9,8.5-2.6,11.9c-1.8,3.4-4.3,6.1-7.5,8C150.4,61.7,146.5,62.7,142.1,62.7z M142.1,53.2
	c2,0,3.7-0.6,5.1-1.7s2.4-2.7,3.1-4.8c0.7-2,1-4.3,1-6.9c0-2.6-0.3-4.9-1-6.9s-1.7-3.6-3.1-4.8s-3.1-1.8-5.1-1.8
	c-2.1,0-3.8,0.6-5.2,1.8c-1.4,1.2-2.4,2.8-3.1,4.8c-0.7,2-1,4.3-1,6.9c0,2.6,0.3,4.9,1,6.9s1.7,3.6,3.1,4.8
	C138.3,52.6,140.1,53.2,142.1,53.2z M188.5,62.7c-4.5,0-8.3-1-11.6-2.9c-3.2-1.9-5.8-4.6-7.5-8c-1.8-3.4-2.6-7.4-2.6-11.9
	c0-4.6,0.9-8.6,2.6-12c1.8-3.4,4.3-6.1,7.5-8S184,17,188.5,17s8.3,1,11.6,2.9c3.2,1.9,5.8,4.6,7.5,8c1.8,3.4,2.6,7.4,2.6,12
	c0,4.5-0.9,8.5-2.6,11.9c-1.8,3.4-4.3,6.1-7.5,8C196.8,61.7,193,62.7,188.5,62.7z M188.5,53.2c2,0,3.7-0.6,5.1-1.7
	c1.4-1.2,2.4-2.7,3.1-4.8c0.7-2,1-4.3,1-6.9c0-2.6-0.3-4.9-1-6.9s-1.7-3.6-3.1-4.8c-1.4-1.2-3.1-1.8-5.1-1.8c-2.1,0-3.8,0.6-5.2,1.8
	s-2.4,2.8-3.1,4.8c-0.7,2-1,4.3-1,6.9c0,2.6,0.3,4.9,1,6.9s1.7,3.6,3.1,4.8S186.5,53.2,188.5,53.2z M234.9,79.3
	c-4,0-7.4-0.5-10.2-1.6s-5.1-2.6-6.7-4.4s-2.8-3.9-3.2-6.3l11.3-1.5c0.3,0.9,0.9,1.7,1.6,2.5c0.7,0.8,1.7,1.4,3,1.9
	c1.2,0.5,2.7,0.7,4.5,0.7c2.7,0,4.9-0.6,6.6-1.9c1.7-1.3,2.6-3.5,2.6-6.5V54h-0.5c-0.5,1.2-1.3,2.4-2.4,3.5c-1.1,1.1-2.5,2-4.1,2.7
	c-1.7,0.7-3.7,1-6,1c-3.3,0-6.3-0.8-9-2.3s-4.9-3.9-6.5-7.1c-1.6-3.2-2.4-7.2-2.4-12.1c0-5,0.8-9.2,2.4-12.5s3.8-5.9,6.5-7.5
	s5.7-2.5,8.9-2.5c2.5,0,4.5,0.4,6.2,1.3c1.7,0.8,3,1.9,4,3.1s1.8,2.4,2.4,3.6h0.5v-7.4h12.2v44.6c0,3.8-0.9,6.9-2.8,9.4
	s-4.4,4.4-7.6,5.7S239.1,79.3,234.9,79.3z M235.1,52c2,0,3.6-0.5,5-1.5s2.4-2.4,3.2-4.3c0.7-1.8,1.1-4.1,1.1-6.7s-0.4-4.8-1.1-6.7
	c-0.7-1.9-1.8-3.4-3.2-4.4s-3.1-1.6-5-1.6c-2,0-3.7,0.5-5.1,1.6s-2.4,2.6-3.1,4.5c-0.7,1.9-1.1,4.1-1.1,6.6s0.4,4.7,1.1,6.6
	c0.7,1.8,1.8,3.3,3.1,4.3C231.4,51.5,233.1,52,235.1,52z M270.1,62.6c-1.9,0-3.5-0.7-4.9-2c-1.4-1.4-2-3-2-4.9s0.7-3.5,2-4.8
	c1.4-1.3,3-2,4.9-2c1.8,0,3.4,0.7,4.8,2s2.1,3,2.1,4.8c0,1.3-0.3,2.4-1,3.5c-0.6,1-1.5,1.9-2.5,2.5S271.4,62.6,270.1,62.6z"/>
</svg>
