<svg xmlns="http://www.w3.org/2000/svg" x="0" y="0" enableBackground="new 0 0 279.7 81" version="1.1" viewBox="0 0 279.7 81" xmlSpace="preserve">
    <path d="M5.1 61.8V2.9h23.6c4.3 0 7.9.6 10.8 1.9s5.1 3.1 6.5 5.3c1.5 2.3 2.2 4.9 2.2 7.8 0 2.3-.5 4.3-1.4 6.1-.9 1.7-2.2 3.2-3.8 4.3-1.6 1.1-3.4 1.9-5.5 2.3v.6c2.2.1 4.3.7 6.3 1.9s3.6 2.8 4.8 4.9c1.2 2.1 1.8 4.6 1.8 7.5 0 3.1-.8 5.9-2.3 8.4s-3.8 4.4-6.8 5.8c-3 1.4-6.7 2.1-11.1 2.1H5.1zm12.5-34.2h9.2c1.7 0 3.2-.3 4.6-.9 1.3-.6 2.4-1.5 3.2-2.6.8-1.1 1.2-2.4 1.2-4 0-2.1-.8-3.8-2.3-5.1s-3.6-2-6.4-2h-9.5v14.6zm0 24h10.1c3.5 0 6-.7 7.6-2 1.6-1.3 2.4-3.1 2.4-5.3 0-1.6-.4-3.1-1.2-4.3-.8-1.2-1.9-2.2-3.3-2.9C31.7 36.4 30 36 28 36H17.6v15.6zM55.4 61.8V2.9h12.2V25h.4c.5-1.2 1.3-2.4 2.3-3.6 1-1.2 2.4-2.3 4-3.1S78 17 80.5 17c3.2 0 6.2.8 8.9 2.5s4.9 4.2 6.5 7.6c1.6 3.4 2.4 7.6 2.4 12.6 0 4.9-.8 9.1-2.4 12.5-1.6 3.4-3.7 5.9-6.4 7.7s-5.7 2.6-9.1 2.6c-2.4 0-4.4-.4-6.1-1.2-1.7-.8-3-1.8-4.1-3-1.1-1.2-1.9-2.4-2.4-3.6h-.5v7.1H55.4zm12-22.1c0 2.6.4 4.9 1.1 6.9.7 2 1.8 3.5 3.2 4.6 1.4 1.1 3.1 1.6 5 1.6 2 0 3.7-.5 5.1-1.7 1.4-1.1 2.4-2.6 3.1-4.6.7-2 1.1-4.2 1.1-6.8 0-2.5-.4-4.8-1.1-6.7s-1.8-3.4-3.1-4.5c-1.4-1.1-3.1-1.6-5.1-1.6-2 0-3.7.5-5 1.6-1.4 1.1-2.4 2.5-3.1 4.5-.9 1.8-1.2 4.1-1.2 6.7zM115.6 2.9v58.9h-12.2V2.9h12.2zM142.1 62.7c-4.5 0-8.3-1-11.6-2.9-3.2-1.9-5.8-4.6-7.5-8-1.8-3.4-2.6-7.4-2.6-11.9 0-4.6.9-8.6 2.6-12 1.8-3.4 4.3-6.1 7.5-8 3.2-1.9 7.1-2.9 11.6-2.9s8.3 1 11.6 2.9c3.2 1.9 5.8 4.6 7.5 8 1.8 3.4 2.6 7.4 2.6 12 0 4.5-.9 8.5-2.6 11.9-1.8 3.4-4.3 6.1-7.5 8-3.3 1.9-7.2 2.9-11.6 2.9zm0-9.5c2 0 3.7-.6 5.1-1.7s2.4-2.7 3.1-4.8c.7-2 1-4.3 1-6.9 0-2.6-.3-4.9-1-6.9s-1.7-3.6-3.1-4.8-3.1-1.8-5.1-1.8c-2.1 0-3.8.6-5.2 1.8-1.4 1.2-2.4 2.8-3.1 4.8-.7 2-1 4.3-1 6.9 0 2.6.3 4.9 1 6.9s1.7 3.6 3.1 4.8c1.4 1.1 3.2 1.7 5.2 1.7zM188.5 62.7c-4.5 0-8.3-1-11.6-2.9-3.2-1.9-5.8-4.6-7.5-8-1.8-3.4-2.6-7.4-2.6-11.9 0-4.6.9-8.6 2.6-12 1.8-3.4 4.3-6.1 7.5-8 3.2-1.9 7.1-2.9 11.6-2.9s8.3 1 11.6 2.9c3.2 1.9 5.8 4.6 7.5 8 1.8 3.4 2.6 7.4 2.6 12 0 4.5-.9 8.5-2.6 11.9-1.8 3.4-4.3 6.1-7.5 8-3.3 1.9-7.1 2.9-11.6 2.9zm0-9.5c2 0 3.7-.6 5.1-1.7 1.4-1.2 2.4-2.7 3.1-4.8.7-2 1-4.3 1-6.9 0-2.6-.3-4.9-1-6.9s-1.7-3.6-3.1-4.8c-1.4-1.2-3.1-1.8-5.1-1.8-2.1 0-3.8.6-5.2 1.8s-2.4 2.8-3.1 4.8c-.7 2-1 4.3-1 6.9 0 2.6.3 4.9 1 6.9s1.7 3.6 3.1 4.8 3.2 1.7 5.2 1.7zM234.9 79.3c-4 0-7.4-.5-10.2-1.6-2.8-1.1-5.1-2.6-6.7-4.4s-2.8-3.9-3.2-6.3l11.3-1.5c.3.9.9 1.7 1.6 2.5.7.8 1.7 1.4 3 1.9 1.2.5 2.7.7 4.5.7 2.7 0 4.9-.6 6.6-1.9 1.7-1.3 2.6-3.5 2.6-6.5V54h-.5c-.5 1.2-1.3 2.4-2.4 3.5-1.1 1.1-2.5 2-4.1 2.7-1.7.7-3.7 1-6 1-3.3 0-6.3-.8-9-2.3-2.7-1.5-4.9-3.9-6.5-7.1-1.6-3.2-2.4-7.2-2.4-12.1 0-5 .8-9.2 2.4-12.5s3.8-5.9 6.5-7.5 5.7-2.5 8.9-2.5c2.5 0 4.5.4 6.2 1.3 1.7.8 3 1.9 4 3.1 1 1.2 1.8 2.4 2.4 3.6h.5v-7.4h12.2v44.6c0 3.8-.9 6.9-2.8 9.4s-4.4 4.4-7.6 5.7-7.1 1.8-11.3 1.8zm.2-27.3c2 0 3.6-.5 5-1.5s2.4-2.4 3.2-4.3c.7-1.8 1.1-4.1 1.1-6.7s-.4-4.8-1.1-6.7c-.7-1.9-1.8-3.4-3.2-4.4s-3.1-1.6-5-1.6c-2 0-3.7.5-5.1 1.6s-2.4 2.6-3.1 4.5c-.7 1.9-1.1 4.1-1.1 6.6s.4 4.7 1.1 6.6c.7 1.8 1.8 3.3 3.1 4.3 1.4 1.1 3.1 1.6 5.1 1.6zM270.1 62.6c-1.9 0-3.5-.7-4.9-2-1.4-1.4-2-3-2-4.9 0-1.9.7-3.5 2-4.8 1.4-1.3 3-2 4.9-2 1.8 0 3.4.7 4.8 2s2.1 3 2.1 4.8c0 1.3-.3 2.4-1 3.5-.6 1-1.5 1.9-2.5 2.5-1 .6-2.1.9-3.4.9z"></path>
</svg>